<svg width="66" height="66" viewBox="0 0 66 66" fill="none" xmlns="http://www.w3.org/2000/svg">
<rect width="66" height="66" rx="24" fill="#8934AD"/>
<mask id="mask0" mask-type="alpha" maskUnits="userSpaceOnUse" x="0" y="0" width="66" height="66">
<rect width="66" height="66" rx="24" fill="white"/>
</mask>
<g mask="url(#mask0)">
<path d="M7 7H60V60H7V7Z" fill="#8934AD"/>
<path fill-rule="evenodd" clip-rule="evenodd" d="M24.4267 43.331C24.4267 43.9349 24.2123 44.4585 23.7837 44.9021C23.3215 45.3792 22.7308 45.6178 22.0114 45.6178C21.2212 45.6178 20.5801 45.3904 20.088 44.9356C19.596 44.4771 19.35 43.905 19.35 43.2192C19.35 42.5781 19.5606 42.0265 19.9818 41.5643C20.4403 41.0611 21.0348 40.8094 21.7653 40.8094C22.6488 40.8094 23.329 41.0742 23.8061 41.6034C24.2198 42.0656 24.4267 42.6415 24.4267 43.331ZM17.1498 42.101C17.1498 42.4812 17.0006 42.7999 16.7024 43.0571C16.4042 43.3142 16.0557 43.4428 15.6569 43.4428C15.478 43.4428 15.3047 43.413 15.137 43.3534C15.2301 43.3534 15.314 43.3422 15.3886 43.3199C15.4035 43.3162 15.4855 43.2845 15.6346 43.2248C15.8508 43.1428 16.0185 43.0328 16.1377 42.895C16.2869 42.7235 16.3614 42.5166 16.3614 42.2743C16.3614 42.1924 16.3539 42.1159 16.3391 42.0451C16.3055 41.8363 16.203 41.6799 16.0316 41.5754C15.8638 41.4711 15.6514 41.4189 15.3942 41.4189C15.3047 41.4189 15.2097 41.4245 15.109 41.4357L14.8966 41.4637V44.7623C14.8966 44.8705 14.9022 44.9655 14.9134 45.0475C14.9245 45.1257 14.9543 45.1984 15.0028 45.2655C15.0326 45.3103 15.068 45.3531 15.109 45.3941C15.1558 45.4327 15.2064 45.4665 15.26 45.4947H13.879C13.9536 45.4575 13.9983 45.4333 14.0132 45.422C14.0504 45.396 14.084 45.3475 14.1138 45.2767C14.1474 45.2058 14.1698 45.1257 14.1809 45.0362C14.1921 44.9431 14.1977 44.8499 14.1977 44.7567V41.6202V41.5475C14.1977 41.4468 14.1921 41.3686 14.1809 41.3127C14.1735 41.2531 14.1475 41.1897 14.1026 41.1226C14.0759 41.0814 14.0439 41.0438 14.0076 41.0108C13.9741 40.9809 13.9275 40.9512 13.8679 40.9213H15.5843C16.0055 40.9213 16.3633 41.0201 16.6577 41.2176C16.9857 41.4375 17.1498 41.732 17.1498 42.101ZM23.2357 41.9221C23.5116 42.2687 23.6495 42.7067 23.6495 43.236C23.6495 43.7317 23.4985 44.1659 23.1967 44.5387C22.8687 44.9412 22.4512 45.1425 21.9442 45.1425C21.4224 45.1425 20.9919 44.9655 20.6528 44.6114C20.3173 44.2535 20.1496 43.8044 20.1496 43.2639C20.1496 42.7346 20.2949 42.2874 20.5857 41.9221C20.9062 41.5196 21.333 41.3182 21.866 41.3182C22.4586 41.3182 22.9152 41.5196 23.2357 41.9221ZM29.8923 44.561L29.5401 45.4947H26.6216C26.6625 45.4761 26.7054 45.4575 26.7502 45.4389C26.813 45.4021 26.8636 45.3477 26.8955 45.2823C26.933 45.2147 26.9576 45.1408 26.9683 45.0642C26.9831 44.9859 26.9906 44.9002 26.9906 44.807V41.6593V41.581C26.9906 41.4655 26.985 41.3761 26.9738 41.3127C26.9664 41.2493 26.9403 41.1822 26.8955 41.1114C26.8657 41.0592 26.834 41.0219 26.8005 40.9996C26.7707 40.9772 26.7204 40.9512 26.6495 40.9213H28.0529C27.9858 40.9512 27.9355 40.979 27.9019 41.0052C27.8683 41.0276 27.8348 41.0648 27.8013 41.117C27.7566 41.1915 27.7286 41.2679 27.7174 41.3462C27.7063 41.4245 27.7007 41.5382 27.7007 41.6873V44.9021C27.7341 44.9133 27.8534 44.9319 28.0585 44.958C28.2672 44.9841 28.4703 44.9971 28.6679 44.9971C28.8952 44.9971 29.0741 44.9729 29.2046 44.9245C29.3073 44.8841 29.4098 44.8431 29.5121 44.8015C29.6165 44.7567 29.7432 44.6766 29.8923 44.561ZM35.5768 45.4947H37.0863C36.9931 45.4426 36.9149 45.3886 36.8514 45.3326C36.7835 45.2717 36.7217 45.2043 36.667 45.1314C36.6111 45.0531 36.5664 44.9766 36.5328 44.9021C36.4992 44.8238 36.4694 44.7474 36.4433 44.6729L34.9226 40.9213H33.7932C33.9162 40.9437 33.9945 41.0089 34.028 41.117C34.0392 41.158 34.0448 41.1915 34.0448 41.2176C34.0448 41.2512 34.0411 41.2828 34.0336 41.3127C34.0262 41.3388 34.015 41.3704 34 41.4077L32.6079 44.8798C32.5632 44.9878 32.5278 45.0661 32.5016 45.1145C32.4611 45.1884 32.4103 45.2562 32.3507 45.3158C32.3097 45.3531 32.2687 45.3866 32.2277 45.4165C32.181 45.4456 32.1325 45.4718 32.0824 45.4947H33.4186C33.3441 45.4799 33.2713 45.4389 33.2006 45.3717C33.1596 45.3307 33.139 45.2655 33.139 45.1761C33.1391 45.0902 33.1542 45.0051 33.1838 44.9245L33.6031 43.7839H35.3307L35.8339 45.0419C35.86 45.1127 35.8731 45.1704 35.8731 45.2152C35.8731 45.2637 35.8581 45.3047 35.8284 45.3382C35.7388 45.4351 35.655 45.4873 35.5768 45.4947ZM35.1686 43.2919L34.4864 41.5587L33.7932 43.2919H35.1686ZM43.4639 45.5059C43.5757 45.5022 43.6372 45.4985 43.6484 45.4947C43.5402 45.4575 43.4452 45.4165 43.3632 45.3717C43.2626 45.3158 43.1676 45.2618 43.0781 45.2096C42.9887 45.1537 42.8917 45.081 42.7874 44.9915C42.6606 44.8798 42.56 44.7791 42.4854 44.6896L41.3672 43.2752L41.4344 43.2583C41.7288 43.18 41.9766 43.0235 42.1779 42.7887C42.3793 42.5502 42.4799 42.3097 42.4799 42.0675C42.4799 41.691 42.3364 41.4003 42.0494 41.1952C41.7959 41.0126 41.4754 40.9213 41.0877 40.9213H39.3433C39.4477 40.9697 39.5259 41.0369 39.5782 41.1226C39.6149 41.181 39.6413 41.2453 39.6564 41.3127C39.675 41.3761 39.6843 41.4767 39.6843 41.6146V44.8573C39.6843 44.9394 39.6788 45.0139 39.6676 45.081C39.6594 45.147 39.6405 45.2112 39.6116 45.2711C39.5856 45.3307 39.552 45.3754 39.511 45.4053C39.4737 45.4351 39.4234 45.4649 39.3601 45.4947H40.6907C40.6274 45.4575 40.5808 45.4257 40.5509 45.3997C40.5211 45.3699 40.4913 45.3251 40.4615 45.2655C40.4316 45.2058 40.413 45.15 40.4056 45.0978C40.4019 45.0419 40.4 44.9636 40.4 44.8629V41.4357L40.5062 41.4077C40.633 41.3779 40.7467 41.363 40.8473 41.363C41.0896 41.363 41.2927 41.4208 41.4567 41.5363C41.6207 41.6481 41.7176 41.7972 41.7474 41.9836C41.7474 42.0022 41.7493 42.0284 41.753 42.0618C41.7567 42.0917 41.7586 42.1178 41.7586 42.1401C41.7586 42.3451 41.6934 42.524 41.563 42.6769C41.4585 42.7999 41.3132 42.9024 41.1268 42.9844C41.0254 43.0281 40.9207 43.0636 40.8137 43.0906C40.7094 43.113 40.6237 43.1242 40.5565 43.1242C40.5938 43.1876 40.6758 43.3199 40.8026 43.5211C40.9703 43.7857 41.1063 43.9833 41.2107 44.1138C41.3607 44.312 41.5117 44.5096 41.6636 44.7064C41.835 44.9263 41.9822 45.0959 42.1052 45.2152C42.2581 45.3643 42.3848 45.4519 42.4854 45.478C42.5898 45.5003 42.7575 45.5115 42.9887 45.5115H43.0725C43.2253 45.5115 43.3558 45.5096 43.4639 45.5059ZM47.4395 45.4947H46.0416C46.0901 45.4686 46.1274 45.4482 46.1535 45.4333C46.2131 45.396 46.256 45.3494 46.2821 45.2934C46.3119 45.2338 46.3343 45.1686 46.3491 45.0978C46.3678 45.0232 46.3771 44.9412 46.3771 44.8518V41.6202V41.5475C46.3771 41.4431 46.3716 41.363 46.3604 41.3071C46.3491 41.2512 46.3194 41.1841 46.2709 41.1058C46.2224 41.0276 46.1461 40.966 46.0416 40.9213H47.4338C47.3742 40.9474 47.3257 40.9753 47.2885 41.0052C47.2484 41.0382 47.2143 41.078 47.1878 41.1226C47.1617 41.1711 47.1394 41.2493 47.1207 41.3574C47.1021 41.4618 47.0927 41.5568 47.0927 41.6426V44.8685C47.0927 44.958 47.0984 45.0325 47.1096 45.0922C47.1207 45.1481 47.1468 45.2171 47.1878 45.299C47.2139 45.3475 47.2456 45.3866 47.2829 45.4165C47.3239 45.4426 47.376 45.4686 47.4395 45.4947ZM52.5235 45.2487C52.9299 44.9804 53.133 44.6207 53.133 44.1696C53.133 43.9125 53.0193 43.6758 52.792 43.4596C52.5907 43.2695 52.2869 43.0887 51.8807 42.9173C51.4781 42.7421 51.2023 42.5949 51.0531 42.4756C50.8445 42.3116 50.7401 42.1104 50.7401 41.8718C50.7401 41.6929 50.8221 41.5513 50.9861 41.4468C51.1501 41.3388 51.3457 41.2847 51.5731 41.2847C51.7759 41.285 51.9768 41.3229 52.1658 41.3965C52.3633 41.4711 52.5254 41.5661 52.6521 41.6817L52.736 41.7599V40.9772L52.6634 40.9549C52.4957 40.9027 52.3354 40.8673 52.1826 40.8486C52.0297 40.8263 51.8564 40.8151 51.6626 40.8151C51.1445 40.8151 50.7382 40.9064 50.4437 41.089C50.1082 41.2978 49.9406 41.6146 49.9406 42.0395C49.9406 42.278 50.0095 42.4923 50.1474 42.6825C50.3188 42.9173 50.5984 43.1186 50.9861 43.2863C51.5228 43.5174 51.8788 43.7094 52.054 43.8622C52.2329 44.0113 52.3223 44.2051 52.3223 44.4437C52.3223 44.6337 52.2235 44.7922 52.026 44.9189C51.8321 45.0419 51.5749 45.1034 51.2544 45.1034C50.8258 45.1034 50.3785 44.9394 49.9126 44.6114L49.8176 44.5443L50.0021 45.422L50.4214 45.5283C50.5405 45.5605 50.662 45.5829 50.7848 45.5953C50.9041 45.6066 51.0382 45.6122 51.1873 45.6122C51.7092 45.6122 52.1546 45.491 52.5235 45.2487ZM25.0837 51.2231C25.0837 51.5996 24.9197 51.9275 24.5916 52.2071C24.2413 52.5053 23.8015 52.6544 23.2722 52.6544H21.4999C21.5557 52.632 21.5986 52.6097 21.6285 52.5873C21.662 52.5649 21.6936 52.5332 21.7235 52.4922C21.7682 52.4289 21.7981 52.3655 21.8129 52.3022C21.8278 52.2388 21.8353 52.1624 21.8353 52.073V48.8134V48.7351V48.668C21.8353 48.5749 21.8278 48.4984 21.8129 48.4388C21.8028 48.3777 21.7778 48.3201 21.7402 48.271C21.7067 48.2188 21.6695 48.1797 21.6285 48.1537C21.5807 48.1243 21.5301 48.0999 21.4774 48.081H23.261C23.6598 48.081 23.9897 48.1723 24.2507 48.3549C24.5116 48.5376 24.642 48.7612 24.642 49.0258C24.642 49.3092 24.586 49.5178 24.4743 49.652C24.4183 49.7191 24.2823 49.8141 24.0661 49.9372L23.9879 49.9819L24.0717 50.0155C24.4146 50.1533 24.6588 50.2968 24.8041 50.446C24.9905 50.6397 25.0837 50.8988 25.0837 51.2231ZM23.5685 48.6177C23.7363 48.7258 23.8387 48.8972 23.876 49.132C23.8835 49.1843 23.8872 49.2196 23.8872 49.2383C23.8872 49.4619 23.7642 49.6371 23.5182 49.7638C23.3169 49.8682 23.0877 49.9204 22.8305 49.9204L22.5565 49.9148V48.6233L22.7411 48.545C22.8231 48.5077 22.9349 48.4891 23.0765 48.4891C23.2741 48.4891 23.4381 48.532 23.5685 48.6177ZM24.301 51.251C24.301 50.9529 24.1779 50.7218 23.9319 50.5577C23.7157 50.4124 23.4511 50.3397 23.138 50.3397C23.056 50.3397 22.9721 50.3454 22.8864 50.3565L22.5621 50.4068V52.0617L22.6739 52.112C22.8528 52.194 23.0523 52.235 23.2722 52.235C23.5592 52.235 23.7959 52.1587 23.9822 52.0058C24.1947 51.8307 24.301 51.579 24.301 51.251ZM30.7752 52.6544H32.2848C32.1916 52.6022 32.1133 52.5482 32.05 52.4922C31.9821 52.4313 31.9203 52.364 31.8655 52.291C31.8096 52.2127 31.7648 52.1363 31.7314 52.0617C31.6978 51.9834 31.668 51.9071 31.6419 51.8325L30.1211 48.081H28.9917C29.1148 48.1034 29.193 48.1685 29.2266 48.2767C29.2378 48.3177 29.2433 48.3512 29.2433 48.3773C29.2433 48.4109 29.2396 48.4425 29.2322 48.4723C29.2247 48.4984 29.2135 48.5301 29.1986 48.5673L27.8065 52.0394C27.7618 52.1474 27.7263 52.2257 27.7002 52.2742C27.6597 52.3481 27.6089 52.4159 27.5493 52.4755C27.5083 52.5128 27.4673 52.5463 27.4263 52.5761C27.3796 52.6053 27.331 52.6314 27.281 52.6544H28.6172C28.5426 52.6395 28.4699 52.5985 28.3991 52.5314C28.3582 52.4904 28.3376 52.4252 28.3376 52.3357C28.3376 52.2499 28.3527 52.1647 28.3823 52.0841L28.8017 50.9435H30.5293L31.0324 52.2016C31.0585 52.2723 31.0716 52.3301 31.0716 52.3749C31.0716 52.4233 31.0567 52.4643 31.0268 52.4978C30.9374 52.5948 30.8535 52.647 30.7752 52.6544ZM30.3671 50.4515L29.685 48.7183L28.9917 50.4515H30.3671ZM38.8972 48.3606C38.9643 48.2338 39.0724 48.1406 39.2215 48.081H37.9076C37.971 48.1108 38.0232 48.1424 38.0642 48.176C38.1062 48.2108 38.1421 48.2523 38.1704 48.299C38.2226 48.381 38.2543 48.4574 38.2654 48.5282C38.2804 48.5991 38.2878 48.6941 38.2878 48.8134V51.5865L35.7663 48.4053C35.729 48.353 35.6974 48.3064 35.6712 48.2654C35.6638 48.2543 35.6489 48.2281 35.6265 48.1872C35.6191 48.1723 35.6116 48.1368 35.6042 48.081H34.4916C34.5736 48.1145 34.635 48.1518 34.676 48.1928C34.7208 48.2301 34.7692 48.286 34.8214 48.3606C34.8549 48.4127 34.8755 48.4742 34.8829 48.545C34.8941 48.6158 34.8997 48.6959 34.8997 48.7854V51.9947C34.8997 52.0543 34.8904 52.1251 34.8718 52.2071C34.8579 52.2827 34.8294 52.3549 34.7879 52.4196C34.7506 52.4792 34.6984 52.5314 34.6313 52.5761C34.5838 52.6073 34.5332 52.6335 34.4804 52.6544H35.8166C35.7905 52.647 35.7495 52.6264 35.6936 52.5929C35.6377 52.5556 35.6005 52.5258 35.5818 52.5035C35.5072 52.4028 35.4588 52.3152 35.4364 52.2406C35.4178 52.1661 35.4085 52.0841 35.4085 51.9947V51.922L35.4029 49.065L37.8518 52.1567C37.9859 52.3282 38.0661 52.427 38.0921 52.4531C38.1473 52.5084 38.2072 52.5589 38.271 52.6041C38.368 52.6787 38.4556 52.7345 38.5338 52.7718C38.6121 52.8128 38.7052 52.8501 38.8134 52.8836L38.8078 48.8245V48.7239C38.8078 48.6419 38.8152 48.5729 38.8301 48.517C38.8466 48.4625 38.8691 48.41 38.8972 48.3606ZM42.8002 52.6544H41.4192C41.4788 52.6208 41.5254 52.5891 41.559 52.5594C41.5963 52.5295 41.626 52.4885 41.6484 52.4363C41.6744 52.3842 41.695 52.3189 41.7099 52.2406C41.7286 52.1624 41.7379 52.0767 41.7379 51.9834V48.7742V48.7015C41.7379 48.5972 41.7323 48.517 41.7211 48.4612C41.7099 48.4053 41.682 48.3419 41.6373 48.271C41.6074 48.2226 41.5757 48.1853 41.5421 48.1592C41.5124 48.1331 41.4677 48.1071 41.408 48.081H42.8002C42.7405 48.1034 42.692 48.1294 42.6548 48.1592C42.6175 48.1853 42.5821 48.2244 42.5486 48.2767C42.5039 48.3437 42.4759 48.4071 42.4647 48.4667C42.4573 48.5263 42.4535 48.6121 42.4535 48.7239V51.9275C42.4535 52.0468 42.4573 52.1437 42.4647 52.2183C42.4759 52.2892 42.5039 52.3692 42.5486 52.4587C42.5746 52.5035 42.6082 52.5425 42.6492 52.5761C42.6967 52.6074 42.7473 52.6336 42.8002 52.6544ZM45.4111 52.6544H45.5453C45.4373 52.6059 45.3553 52.5649 45.2993 52.5314C45.2434 52.4978 45.1502 52.4326 45.0198 52.3357C44.9576 52.2905 44.8978 52.242 44.8409 52.1903C44.7961 52.1419 44.7514 52.0878 44.7067 52.0282L43.2754 50.144L44.9023 48.081H43.5829C43.691 48.1145 43.7655 48.1778 43.8065 48.271C43.8251 48.3046 43.8345 48.3493 43.8345 48.4053C43.8345 48.4574 43.8233 48.5133 43.801 48.5729C43.7785 48.6326 43.7562 48.6792 43.7338 48.7128L42.5373 50.2894L43.9966 52.2519C44.0823 52.3711 44.1606 52.4512 44.2315 52.4922C44.2426 52.4997 44.2948 52.5258 44.388 52.5705C44.4514 52.6041 44.5613 52.6283 44.7179 52.6432C44.8744 52.6544 45.044 52.66 45.2267 52.66C45.3011 52.6562 45.3627 52.6544 45.4111 52.6544Z" fill="white"/>
<path fill-rule="evenodd" clip-rule="evenodd" d="M34.8482 14.4386L26.0614 23.5044H30.3851L39.2649 14.4386H34.8482ZM35.3596 19.6456L26.5728 28.7114H30.8965L39.7763 19.6456H35.3596ZM27.6886 33.2675L36.4754 24.2018H40.8921L32.0123 33.2675H27.6886Z" fill="#F2A809"/>
</g>
</svg>
